<svg width="40" height="42" viewBox="0 0 40 42" fill="none" xmlns="http://www.w3.org/2000/svg">
<g filter="url(#filter0_d_39_2859)">
<path d="M11.1301 7.76882H33.7121C34.3649 7.76882 34.8427 8.38411 34.681 9.01655L32.7801 16.4506C32.4405 17.7785 31.2442 18.7074 29.8736 18.7074H13.0254M4 1.49957H8.65214C9.63535 1.49957 10.4727 2.21422 10.6273 3.18521L13.6467 22.1562C13.8012 23.1272 14.6386 23.8418 15.6218 23.8418H32.203" stroke="black" stroke-width="1.5"/>
<path d="M19.7689 30.2656C19.7689 31.5678 18.7584 32.5758 17.5695 32.5758C16.3807 32.5758 15.3701 31.5678 15.3701 30.2656C15.3701 28.9634 16.3807 27.9554 17.5695 27.9554C18.7584 27.9554 19.7689 28.9634 19.7689 30.2656Z" stroke="black" stroke-width="1.5"/>
<path d="M32.746 30.2656C32.746 31.5678 31.7354 32.5758 30.5466 32.5758C29.3577 32.5758 28.3472 31.5678 28.3472 30.2656C28.3472 28.9634 29.3577 27.9554 30.5466 27.9554C31.7354 27.9554 32.746 28.9634 32.746 30.2656Z" stroke="black" stroke-width="1.5"/>
</g>
<defs>
<filter id="filter0_d_39_2859" x="0" y="0.749573" width="39.4629" height="40.5762" filterUnits="userSpaceOnUse" color-interpolation-filters="sRGB">
<feFlood flood-opacity="0" result="BackgroundImageFix"/>
<feColorMatrix in="SourceAlpha" type="matrix" values="0 0 0 0 0 0 0 0 0 0 0 0 0 0 0 0 0 0 127 0" result="hardAlpha"/>
<feOffset dy="4"/>
<feGaussianBlur stdDeviation="2"/>
<feComposite in2="hardAlpha" operator="out"/>
<feColorMatrix type="matrix" values="0 0 0 0 0 0 0 0 0 0 0 0 0 0 0 0 0 0 0.25 0"/>
<feBlend mode="normal" in2="BackgroundImageFix" result="effect1_dropShadow_39_2859"/>
<feBlend mode="normal" in="SourceGraphic" in2="effect1_dropShadow_39_2859" result="shape"/>
</filter>
</defs>
</svg>
