<svg width="25" height="33" viewBox="0 0 25 33" fill="none" xmlns="http://www.w3.org/2000/svg">
<g filter="url(#filter0_d_77_440)">
<path d="M12.5 0C7.8131 0 4 3.85087 4 8.5842C4 10.1834 4.43865 11.7441 5.26881 13.0982L12.0162 24.0791C12.1454 24.2895 12.3731 24.4173 12.618 24.4173C12.6199 24.4173 12.6217 24.4173 12.6236 24.4173C12.8706 24.4153 13.0988 24.2836 13.2257 24.0695L19.8011 12.9822C20.5854 11.6568 21 10.136 21 8.5842C21 3.85087 17.1869 0 12.5 0ZM18.5853 12.2477L12.6073 22.3278L6.47289 12.3444C5.78188 11.2174 5.40722 9.91714 5.40722 8.5842C5.40722 4.63976 8.59425 1.42116 12.5 1.42116C16.4058 1.42116 19.5881 4.63976 19.5881 8.5842C19.5881 9.87761 19.2381 11.1446 18.5853 12.2477Z" fill="black"/>
<path d="M12.4965 3.61737C9.89259 3.61737 7.77417 5.64581 7.77417 8.13909C7.77417 10.6164 9.85812 12.6608 12.4965 12.6608C15.1673 12.6608 17.2188 10.5892 17.2188 8.13909C17.2188 5.64581 15.1003 3.61737 12.4965 3.61737ZM12.4965 11.1636C10.7515 11.1636 9.33777 9.80544 9.33777 8.13909C9.33777 6.47691 10.7605 5.11456 12.4965 5.11456C14.2324 5.11456 15.6499 6.47691 15.6499 8.13909C15.6499 9.78113 14.2691 11.1636 12.4965 11.1636Z" fill="black"/>
</g>
<defs>
<filter id="filter0_d_77_440" x="0" y="0" width="25" height="32.4173" filterUnits="userSpaceOnUse" color-interpolation-filters="sRGB">
<feFlood flood-opacity="0" result="BackgroundImageFix"/>
<feColorMatrix in="SourceAlpha" type="matrix" values="0 0 0 0 0 0 0 0 0 0 0 0 0 0 0 0 0 0 127 0" result="hardAlpha"/>
<feOffset dy="4"/>
<feGaussianBlur stdDeviation="2"/>
<feComposite in2="hardAlpha" operator="out"/>
<feColorMatrix type="matrix" values="0 0 0 0 0 0 0 0 0 0 0 0 0 0 0 0 0 0 0.25 0"/>
<feBlend mode="normal" in2="BackgroundImageFix" result="effect1_dropShadow_77_440"/>
<feBlend mode="normal" in="SourceGraphic" in2="effect1_dropShadow_77_440" result="shape"/>
</filter>
</defs>
</svg>
