<svg width="198" height="51" viewBox="0 0 198 51" fill="none" xmlns="http://www.w3.org/2000/svg">
<g filter="url(#filter0_d_39_4530)">
<path fill-rule="evenodd" clip-rule="evenodd" d="M99.9175 38.3538C99.9175 38.3538 101.044 37.8078 103.019 37.0732C104.037 37.56 106.267 38.5741 108.427 39.1981C111.351 40.0425 113.299 39.9125 116.028 39.9125C118.756 39.9125 122.653 39.4578 122.653 39.4578C122.653 39.4578 122.069 37.3144 122.004 35.7554C121.939 34.1961 121.939 33.9364 121.939 33.9364C121.939 33.9364 121.354 36.1451 121.484 37.3144C121.614 38.4834 121.614 38.8734 121.614 38.8734C121.614 38.8734 116.482 39.3931 112.845 39.0031C109.207 38.6134 106.998 38.2234 105.439 37.7041C104.58 37.4175 103.761 37.171 103.198 37.0069C105.954 35.9923 110.267 34.6479 115.443 33.8717C124.537 32.5074 122.718 32.962 122.718 32.962C122.718 32.962 122.913 32.5723 124.082 32.4427C125.252 32.3127 137.204 31.728 140.907 31.9877C144.61 32.2474 154.808 32.7673 156.302 33.7417C157.796 34.716 158.381 35.6904 157.926 38.0938C157.472 40.4974 156.562 42.8361 155.718 42.3162C154.873 41.7965 152.015 39.5881 149.287 39.1981C146.559 38.8084 143.57 38.8734 142.336 39.1981C141.102 39.5231 139.023 40.8222 138.049 40.4975C137.074 40.1728 135.126 38.3538 133.567 39.0034C132.008 39.6531 131.943 39.8478 131.228 40.7571C130.514 41.6668 129.539 42.7062 128.76 41.7318C127.98 40.7572 126.551 40.3025 125.317 40.2375C124.083 40.1728 122.978 40.5625 122.653 40.8871C122.328 41.2121 121.874 41.8615 121.874 41.8615C121.874 41.8615 119.86 41.3421 117.521 41.6018C115.183 41.8615 111.156 42.0565 108.427 41.5368C105.699 41.0171 99.9175 38.3538 99.9175 38.3538ZM124.472 39.1331C124.472 39.1331 127.071 38.6784 128.045 39.3928C129.02 40.1075 129.214 40.6922 130.968 39.2631C132.722 37.8338 133.826 36.7944 135.775 37.8338C137.724 38.8734 138.634 39.5228 140.517 38.5485C142.401 37.5741 146.494 36.5348 149.937 37.9638C153.379 39.3928 156.043 41.6665 156.562 40.2375C157.082 38.8081 157.342 37.2491 154.679 36.6647C152.015 36.0801 148.053 35.4304 144.415 36.0151C140.777 36.5997 140.128 38.2885 138.634 37.8338C137.139 37.3791 135.516 36.0151 133.697 36.7294C131.878 37.4441 130.319 39.6528 128.825 38.9381C127.331 38.2238 126.291 37.5741 125.382 38.0288C124.472 38.4835 124.472 39.1331 124.472 39.1331Z" fill="#1F1C21"/>
<path d="M5.52161 0.342795V10.0029H5.96659C6.00097 9.44913 6.0866 8.88944 6.2294 8.33008C6.36628 7.76478 6.54314 7.22263 6.76595 6.70296C6.98282 6.18891 7.23406 5.7211 7.51937 5.2983C7.79936 4.88175 8.10748 4.54456 8.4334 4.28175C8.67309 4.08238 8.9812 3.89365 9.36369 3.71115C9.74618 3.52834 10.2031 3.37991 10.734 3.26585C11.2708 3.14585 11.8818 3.08868 12.578 3.08305H19.8403L4.56226 24.1162L4.63069 24.3219H26.7261V13.2228H26.2808C26.2464 13.8512 26.1833 14.4902 26.092 15.1355C25.9952 15.7808 25.8639 16.409 25.6927 17.0196C25.5155 17.6305 25.2927 18.1958 25.0189 18.7211C24.7449 19.2408 24.4136 19.6917 24.0196 20.0742C23.523 20.5367 22.9977 20.8735 22.4496 21.0907C21.8959 21.3076 21.3478 21.4444 20.7937 21.5016C20.2459 21.5644 19.7206 21.587 19.2238 21.5813H11.6874L26.8973 0.548112L26.7261 0.342795H5.52161ZM33.6115 20.4854C33.6172 20.7648 33.6059 21.0504 33.5718 21.3473C33.5431 21.6441 33.4631 21.941 33.3434 22.2266C33.2234 22.5122 33.0234 22.7804 32.7553 23.0204C32.4981 23.2313 32.2131 23.3972 31.8872 23.5057C31.5678 23.62 31.2366 23.6997 30.8941 23.7453C30.5513 23.791 30.226 23.825 29.9119 23.8425L29.3297 23.8766V24.3219H53.3773V13.9078H52.932L52.8295 14.9702C52.7779 15.5352 52.6979 16.0949 52.5954 16.6655C52.4867 17.2308 52.3154 17.7789 52.0701 18.3098C51.8301 18.8467 51.4764 19.3376 51.0139 19.8001C50.8711 19.9486 50.6599 20.1257 50.3858 20.3251C50.1114 20.5251 49.7636 20.7195 49.3352 20.9076C48.9071 21.102 48.393 21.2617 47.7937 21.3876C47.194 21.5129 46.4978 21.5757 45.704 21.5813H37.8592V4.17925C37.8536 3.97925 37.8648 3.72833 37.8995 3.43146C37.928 3.1346 38.0077 2.82618 38.1277 2.5065C38.2536 2.18651 38.4473 1.90152 38.7158 1.64434C38.9614 1.42747 39.2467 1.26746 39.572 1.15933C39.9036 1.04496 40.2401 0.964981 40.5885 0.919044C40.931 0.873733 41.2566 0.839341 41.5591 0.822153L42.1416 0.788097V0.342795H29.3297V0.788097L29.9119 0.822153C30.2148 0.839341 30.5401 0.873733 30.8885 0.919044C31.2307 0.964981 31.5678 1.04496 31.8988 1.15933C32.2244 1.26746 32.51 1.42747 32.7553 1.64434C33.0234 1.90152 33.2234 2.18651 33.3434 2.5065C33.4631 2.82618 33.5431 3.1346 33.5718 3.43146C33.6059 3.72833 33.6172 3.97925 33.6115 4.17925V20.4854ZM66.0179 0L58.55 18.0189C58.299 18.6067 58.0706 19.1092 57.865 19.5204C57.6594 19.9314 57.4825 20.2742 57.3284 20.5479C57.1741 20.8163 57.0428 21.0335 56.9403 21.2045C56.8316 21.3876 56.6775 21.6101 56.4891 21.8613C56.3006 22.1123 56.061 22.3694 55.7697 22.6319C55.4841 22.8891 55.1419 23.1232 54.7363 23.3288C54.3366 23.5341 53.8741 23.6825 53.3432 23.7741L52.6923 23.8766V24.3219H64.9904V23.8766L64.1339 23.8081C63.7973 23.7853 63.4373 23.7281 63.0548 23.6369C62.6724 23.5456 62.3127 23.4028 61.9699 23.2144C61.6277 23.026 61.3421 22.7804 61.1196 22.4719C60.9365 22.2154 60.8112 21.9129 60.7371 21.5588C60.6684 21.2104 60.6452 20.8504 60.6799 20.4798C60.708 20.1145 60.788 19.7717 60.914 19.4576L62.2158 16.2718H70.9853L72.5268 20.0401C72.6181 20.251 72.6924 20.4798 72.7608 20.7307C72.8293 20.9876 72.8634 21.2335 72.8693 21.4788C72.8634 21.9869 72.7665 22.3922 72.5724 22.6891C72.384 22.9916 72.1384 23.2144 71.8418 23.3628C71.6871 23.4541 71.499 23.5282 71.2822 23.5853C71.065 23.6425 70.8028 23.6941 70.4828 23.7338C70.1631 23.7741 69.7691 23.8081 69.3069 23.8425L68.7928 23.8766V24.3219H82.2215V23.8766L81.6731 23.8425C81.2678 23.8194 80.8678 23.7509 80.4741 23.6369C80.0803 23.5281 79.7204 23.3853 79.3894 23.2144C79.0526 23.0432 78.7782 22.8488 78.5557 22.6438C78.356 22.4438 78.1617 22.181 77.9792 21.8613C77.7907 21.536 77.5851 21.1076 77.3511 20.571C77.1226 20.0401 76.837 19.3608 76.5004 18.5326L68.93 0H66.0179ZM70.129 13.8737H63.072L66.5663 5.44673H66.6347L70.129 13.8737ZM92.5669 3.08305H95.1019C95.3015 3.07743 95.5531 3.08868 95.8556 3.1118C96.1581 3.13461 96.4834 3.18024 96.8374 3.26023C97.1915 3.33429 97.5452 3.45398 97.8993 3.61429C98.259 3.77991 98.5902 4.00239 98.9043 4.28175C99.1899 4.54456 99.4467 4.89298 99.6808 5.33266C99.9089 5.77202 100.115 6.25763 100.286 6.78856C100.463 7.32511 100.605 7.86791 100.714 8.41571C100.822 8.96382 100.891 9.48319 100.925 9.96881H101.371V0.342795H79.5154V9.96881H79.9607C79.9947 9.48319 80.0688 8.96382 80.1776 8.41571C80.2804 7.86791 80.4229 7.32511 80.5997 6.78856C80.7713 6.25763 80.9766 5.77202 81.2109 5.33266C81.4394 4.89298 81.6963 4.54456 81.9816 4.28175C82.2956 4.00239 82.6269 3.77991 82.9862 3.61429C83.3406 3.45398 83.6946 3.33429 84.0487 3.26023C84.4024 3.18024 84.7281 3.13461 85.0306 3.1118C85.333 3.08868 85.5843 3.07743 85.7843 3.08305H88.3192V20.4854C88.3249 20.6851 88.3136 20.9363 88.2789 21.2335C88.2505 21.5304 88.1708 21.8385 88.0508 22.1582C87.9311 22.4719 87.7311 22.7632 87.4627 23.0204C87.2171 23.2313 86.9317 23.3972 86.6064 23.5057C86.2749 23.62 85.9383 23.6941 85.5955 23.7453C85.2474 23.791 84.9218 23.8194 84.6193 23.8425L84.0368 23.8766V24.3219H96.8487V23.8766L96.2665 23.8425C95.9637 23.8194 95.6384 23.791 95.2959 23.7453C94.9478 23.6941 94.6106 23.62 94.2797 23.5057C93.9541 23.3972 93.6691 23.2313 93.4231 23.0204C93.155 22.7632 92.9607 22.4719 92.835 22.1582C92.7154 21.8385 92.6353 21.5304 92.6066 21.2335C92.5725 20.9363 92.5613 20.6851 92.5669 20.4854V3.08305ZM136.21 0.342795H125.933L119.527 16.6146H119.424L113.018 0.342795H102.33V0.788097L102.913 0.822153C103.215 0.839341 103.54 0.873733 103.889 0.919044C104.231 0.964981 104.568 1.04496 104.899 1.15933C105.225 1.26746 105.51 1.42747 105.756 1.64434C106.024 1.90152 106.224 2.18651 106.344 2.5065C106.463 2.82618 106.543 3.1346 106.572 3.43146C106.606 3.72833 106.618 3.97925 106.612 4.17925V19.8001C106.618 20.0629 106.601 20.3823 106.567 20.7592C106.532 21.136 106.452 21.5185 106.327 21.9013C106.207 22.2838 106.013 22.6091 105.756 22.8835C105.533 23.1004 105.248 23.2772 104.911 23.4144C104.574 23.5513 104.225 23.6541 103.872 23.7225C103.512 23.791 103.192 23.8309 102.913 23.8425L102.33 23.8766V24.3219H113.874V23.8766L113.292 23.8425C113.012 23.8309 112.693 23.791 112.333 23.7225C111.979 23.6541 111.631 23.5513 111.294 23.4144C110.957 23.2772 110.671 23.1004 110.449 22.8835C110.243 22.6719 110.083 22.4266 109.969 22.141C109.849 21.8557 109.764 21.5644 109.712 21.2616C109.661 20.9648 109.627 20.6851 109.61 20.4282C109.598 20.1654 109.592 19.9601 109.592 19.8001V3.66553H109.695L117.848 24.3219H119.424L127.577 3.66553H127.68V20.4854C127.685 20.6851 127.674 20.9363 127.64 21.2335C127.611 21.5304 127.537 21.8385 127.411 22.1582C127.291 22.4719 127.092 22.7632 126.823 23.0204C126.578 23.2313 126.292 23.3972 125.967 23.5057C125.636 23.62 125.299 23.6941 124.956 23.7453C124.608 23.791 124.283 23.8194 123.98 23.8425L123.398 23.8766V24.3219H136.21V23.8766L135.627 23.8425C135.325 23.8194 134.999 23.791 134.656 23.7453C134.308 23.6941 133.972 23.62 133.646 23.5057C133.315 23.3972 133.029 23.2313 132.784 23.0204C132.515 22.7632 132.322 22.4719 132.196 22.1582C132.076 21.8385 131.996 21.5304 131.967 21.2335C131.939 20.9363 131.922 20.6851 131.928 20.4854V4.17925C131.922 3.97925 131.939 3.72833 131.967 3.43146C131.996 3.1346 132.076 2.82618 132.196 2.5065C132.322 2.18651 132.515 1.90152 132.784 1.64434C133.029 1.42747 133.315 1.26746 133.646 1.15933C133.972 1.04496 134.308 0.964981 134.656 0.919044C134.999 0.873733 135.325 0.839341 135.627 0.822153L136.21 0.788097V0.342795ZM148.781 0L141.314 18.0189C141.063 18.6067 140.834 19.1092 140.629 19.5204C140.423 19.9314 140.246 20.2742 140.092 20.5479C139.938 20.8163 139.806 21.0335 139.704 21.2045C139.595 21.3876 139.441 21.6101 139.253 21.8613C139.064 22.1123 138.825 22.3694 138.533 22.6319C138.248 22.8891 137.905 23.1232 137.5 23.3288C137.1 23.5341 136.638 23.6825 136.107 23.7741L135.456 23.8766V24.3219H147.754V23.8766L146.897 23.8081C146.561 23.7853 146.201 23.7281 145.818 23.6369C145.436 23.5456 145.076 23.4028 144.733 23.2144C144.391 23.026 144.106 22.7804 143.883 22.4719C143.7 22.2154 143.575 21.9129 143.501 21.5588C143.432 21.2104 143.409 20.8504 143.443 20.4798C143.472 20.1145 143.552 19.7717 143.678 19.4576L144.979 16.2718H153.749L155.29 20.0401C155.382 20.251 155.456 20.4798 155.524 20.7307C155.593 20.9876 155.627 21.2335 155.633 21.4788C155.627 21.9869 155.53 22.3922 155.336 22.6891C155.148 22.9916 154.902 23.2144 154.605 23.3628C154.451 23.4541 154.263 23.5282 154.046 23.5853C153.829 23.6425 153.566 23.6941 153.246 23.7338C152.927 23.7741 152.533 23.8081 152.07 23.8425L151.556 23.8766V24.3219H164.985V23.8766L164.437 23.8425C164.031 23.8194 163.631 23.7509 163.238 23.6369C162.844 23.5281 162.484 23.3853 162.153 23.2144C161.816 23.0432 161.542 22.8488 161.319 22.6438C161.12 22.4438 160.926 22.181 160.743 21.8613C160.554 21.536 160.349 21.1076 160.115 20.571C159.886 20.0401 159.601 19.3608 159.264 18.5326L151.694 0H148.781ZM152.893 13.8737H145.836L149.33 5.44673H149.398L152.893 13.8737ZM163.752 0.342795V0.788097L164.403 0.92527C164.819 1.02214 165.248 1.20466 165.687 1.46746C166.127 1.72996 166.549 2.03243 166.954 2.38086C167.36 2.72929 167.72 3.07743 168.034 3.42554L175.947 12.2297L169.267 20.0058C169.153 20.1486 168.987 20.3195 168.782 20.5251C168.576 20.7307 168.348 20.9479 168.108 21.1704C167.863 21.3932 167.634 21.5988 167.412 21.787C167.195 21.9757 167.012 22.1241 166.869 22.2323C166.332 22.6263 165.75 22.9688 165.122 23.2488C164.5 23.5281 163.883 23.7397 163.272 23.8766V24.3219H176.735V23.8766L175.913 23.8081C175.268 23.751 174.771 23.6766 174.417 23.5913C174.069 23.4997 173.835 23.4369 173.72 23.3972C173.475 23.3056 173.246 23.1916 173.03 23.0375C172.813 22.8891 172.63 22.7004 172.493 22.4607C172.356 22.2266 172.287 21.9354 172.282 21.5813C172.287 21.3132 172.361 21.0335 172.499 20.7367C172.636 20.4398 172.79 20.1654 172.967 19.9145C173.144 19.6632 173.292 19.4632 173.412 19.3204L177.763 14.2506L182.456 19.4232C182.701 19.6861 182.93 19.9601 183.147 20.2398C183.363 20.5251 183.546 20.8107 183.683 21.1076C183.82 21.3988 183.889 21.6957 183.894 21.9926C183.889 22.3294 183.797 22.6091 183.615 22.8319C183.437 23.0488 183.198 23.2257 182.901 23.3628C182.587 23.5169 182.222 23.6313 181.817 23.7056C181.411 23.7797 181.006 23.825 180.606 23.8425L179.613 23.8766V24.3219H194V23.8766C193.623 23.8309 193.212 23.7338 192.773 23.5853C192.327 23.4369 191.859 23.2029 191.362 22.8835C190.74 22.4494 190.135 21.9298 189.558 21.3132C188.982 20.702 188.37 20.0282 187.731 19.2864L180.434 11.1331L185.059 5.78953C185.39 5.40704 185.739 5.00144 186.104 4.56739C186.475 4.13334 186.869 3.71114 187.291 3.29991C187.709 2.88898 188.165 2.51804 188.656 2.19211C188.959 1.99837 189.29 1.80963 189.661 1.63308C190.032 1.45621 190.42 1.30777 190.825 1.17621C191.225 1.04496 191.619 0.947789 192.013 0.890603L192.698 0.788097V0.342795H178.927V0.788097L179.783 0.856546C180.412 0.907795 180.926 0.999014 181.325 1.12464C181.725 1.25057 182.033 1.40464 182.25 1.57589C182.502 1.76432 182.684 1.96994 182.787 2.19837C182.89 2.43243 182.941 2.689 182.936 2.98024C182.93 3.32305 182.884 3.62551 182.787 3.89926C182.695 4.168 182.581 4.40208 182.444 4.6077C182.307 4.81332 182.176 4.99017 182.045 5.1386L178.619 9.14665L173.755 3.73395C173.572 3.52833 173.441 3.34586 173.372 3.18586C173.304 3.02618 173.269 2.87775 173.275 2.74056C173.269 2.47776 173.332 2.2212 173.475 1.96995C173.612 1.7184 173.863 1.4959 174.234 1.30185C174.411 1.22154 174.617 1.14746 174.856 1.08496C175.096 1.02215 175.342 0.970602 175.587 0.930915C175.833 0.896541 176.055 0.868108 176.255 0.856546L177.043 0.788097V0.342795H163.752Z" fill="#1F1C21"/>
<path d="M4.49218 35.6121C4.63905 35.52 4.80154 35.4359 4.97935 35.3575C5.15715 35.28 5.34496 35.2171 5.54246 35.17C5.74151 35.1215 5.94307 35.0978 6.14651 35.0956C6.43025 35.0956 6.67838 35.1446 6.88962 35.2406C7.10274 35.3381 7.2668 35.479 7.38586 35.6649C7.50335 35.8528 7.56398 36.0812 7.56616 36.3512C7.56398 36.5546 7.5171 36.744 7.42116 36.9202C7.3271 37.0958 7.1943 37.2483 7.02431 37.3815C6.85619 37.5143 6.65868 37.618 6.43181 37.6924C6.20744 37.7664 5.96276 37.8039 5.70058 37.8058H5.2431V38.5802H5.71215C5.9162 38.5802 6.11932 38.5939 6.32244 38.6249C6.52743 38.6542 6.7215 38.7049 6.90525 38.7752C7.08712 38.8461 7.25116 38.9399 7.39397 39.0567C7.53678 39.1742 7.65023 39.3189 7.7321 39.4908C7.81616 39.663 7.8574 39.8686 7.85928 40.1051C7.85928 40.3961 7.78897 40.6545 7.65022 40.8792C7.50929 41.1061 7.30585 41.282 7.03836 41.411C6.76805 41.5382 6.44182 41.6045 6.05245 41.607C5.83215 41.6045 5.61278 41.581 5.39559 41.536C5.17685 41.491 4.97122 41.4323 4.77998 41.3604C4.58592 41.2879 4.41624 41.2095 4.26937 41.1254L4 41.9235C4.30843 42.1032 4.63905 42.236 4.99311 42.3185C5.34654 42.4001 5.70464 42.4416 6.06463 42.4395C6.35587 42.4395 6.6393 42.4123 6.9168 42.357C7.19648 42.3023 7.45616 42.2182 7.69928 42.1032C7.94333 41.9879 8.15646 41.8395 8.34239 41.6592C8.5277 41.4773 8.67269 41.2626 8.778 41.0105C8.88362 40.7583 8.93645 40.4686 8.93832 40.1404C8.93082 39.7586 8.84426 39.4286 8.67614 39.1474C8.50802 38.8658 8.28115 38.6389 7.99241 38.4708C7.70273 38.3027 7.37461 38.1989 7.00305 38.1574V38.1346C7.31179 38.0618 7.58741 37.9346 7.83146 37.7549C8.07646 37.5749 8.27209 37.3521 8.41427 37.0858C8.55708 36.8205 8.62958 36.5252 8.63364 36.1987C8.62958 35.7899 8.53176 35.4415 8.33645 35.1543C8.14083 34.8672 7.87085 34.6459 7.52304 34.4934C7.17461 34.3412 6.77212 34.2647 6.31056 34.2631C5.8787 34.2647 5.48933 34.3219 5.1434 34.4287C4.79966 34.5387 4.49217 34.6809 4.2228 34.8612L4.49218 35.6121ZM10.8505 34.4034V37.7355C10.8526 38.0539 10.8464 38.3827 10.8308 38.7189C10.817 39.0552 10.7876 39.3799 10.7426 39.6942C10.6961 40.0092 10.6273 40.293 10.5336 40.547C10.4398 40.8008 10.3148 41.0045 10.1583 41.1607C10.0605 41.2567 9.93954 41.3442 9.79079 41.4248C9.64174 41.5032 9.48737 41.5558 9.32518 41.5833L9.45424 42.4042C9.60892 42.4026 9.75923 42.3848 9.91016 42.3479C10.0586 42.3123 10.1992 42.2654 10.3305 42.2085C10.4611 42.152 10.5745 42.0932 10.6742 42.0289C10.8936 41.8764 11.0754 41.6829 11.2217 41.4501C11.3667 41.2154 11.482 40.9517 11.5676 40.6586C11.6542 40.3633 11.7186 40.0498 11.7595 39.7177C11.8026 39.3833 11.8298 39.0436 11.8417 38.6936C11.8554 38.3433 11.8614 37.9974 11.8592 37.653V35.2603H14.4638V42.3104H15.496V34.4034H10.8505ZM21.3499 39.8236L22.1945 42.3104H23.2854L20.5874 34.4034H19.3674L16.6691 42.3104H17.725L18.5459 39.8236H21.3499ZM18.7571 39.0258L19.5315 36.7384C19.6134 36.4959 19.6859 36.2552 19.7487 36.0127C19.813 35.7721 19.8737 35.5356 19.9305 35.3068H19.9537C20.0105 35.5337 20.0733 35.7687 20.1377 36.0071C20.2024 36.2452 20.2783 36.4918 20.364 36.7496L21.1505 39.0258H18.7571ZM25.9479 42.3104H26.9801V35.2718H29.3972V34.4034H23.5436V35.2718H25.9479V42.3104ZM33.4671 34.2631C32.9374 34.2647 32.4487 34.3628 32.0049 34.5584C31.559 34.7537 31.174 35.0334 30.8459 35.3968C30.5172 35.7624 30.2631 36.1987 30.0828 36.7071C29.9009 37.2174 29.8094 37.7861 29.8072 38.4161C29.8094 39.0158 29.8953 39.5611 30.0675 40.0539C30.2397 40.5451 30.4818 40.9689 30.7968 41.3254C31.1118 41.6811 31.4871 41.9545 31.9209 42.1479C32.3549 42.3398 32.834 42.4376 33.3618 42.4395C33.7668 42.4395 34.1536 42.3807 34.5192 42.2654C34.8849 42.152 35.2214 41.9798 35.5261 41.7532C35.8314 41.5264 36.0973 41.247 36.3217 40.9108C36.547 40.5764 36.7233 40.1892 36.8457 39.7489C36.9689 39.3089 37.0317 38.8168 37.0335 38.2749C37.0317 37.6824 36.9476 37.143 36.7814 36.6543C36.6154 36.1637 36.3764 35.7409 36.0639 35.3853C35.7529 35.0278 35.3777 34.7518 34.9398 34.5584C34.5036 34.3643 34.0114 34.2647 33.4671 34.2631ZM33.4321 35.0956C33.7724 35.0978 34.0774 35.1584 34.3477 35.2799C34.6192 35.399 34.8536 35.5649 35.0552 35.7743C35.2567 35.9852 35.4248 36.2281 35.5576 36.5015C35.6908 36.7752 35.7904 37.0687 35.8567 37.3774C35.9211 37.6883 35.9545 38.0033 35.9545 38.3221C35.9545 38.7736 35.8979 39.198 35.7864 39.593C35.6745 39.988 35.5105 40.3355 35.2958 40.6367C35.0786 40.938 34.8145 41.1745 34.4996 41.3467C34.1852 41.5164 33.8252 41.6029 33.4205 41.607C33.0958 41.6045 32.8012 41.5482 32.5349 41.4364C32.269 41.3229 32.0343 41.1664 31.8293 40.9654C31.6237 40.7639 31.4515 40.5273 31.3127 40.2595C31.1721 39.9895 31.0662 39.6964 30.9943 39.3798C30.924 39.0633 30.8865 38.7342 30.8865 38.3924C30.8865 38.0465 30.9199 37.7102 30.9887 37.3871C31.0546 37.0646 31.1568 36.7637 31.2931 36.4862C31.4284 36.2103 31.5984 35.9677 31.8015 35.759C32.0049 35.5515 32.2437 35.3893 32.5155 35.2734C32.7871 35.1565 33.0918 35.0978 33.4321 35.0956ZM37.491 34.4034L40.1188 39.753C40.1656 39.8452 40.195 39.9252 40.2028 39.9977C40.2103 40.0695 40.195 40.1479 40.1541 40.2342C40.0897 40.377 40.0113 40.5273 39.9175 40.6817C39.8235 40.8383 39.7141 40.9826 39.5869 41.1198C39.4597 41.2567 39.3151 41.3661 39.1529 41.452C38.9904 41.5361 38.8066 41.5811 38.6054 41.5833C38.5179 41.5833 38.4435 41.581 38.3807 41.5751C38.3179 41.5695 38.2651 41.5595 38.2182 41.5482L38.1245 42.3807C38.1891 42.4042 38.2673 42.422 38.3588 42.4335C38.4526 42.4451 38.566 42.451 38.6991 42.451C39.0491 42.451 39.3722 42.3691 39.6653 42.2066C39.9582 42.0426 40.2322 41.8004 40.4822 41.4773C40.6232 41.2936 40.7603 41.0864 40.891 40.852C41.0241 40.617 41.1513 40.3689 41.2744 40.1051C41.3978 39.8411 41.5169 39.5711 41.6303 39.2974C41.7453 39.0217 41.855 38.7524 41.9609 38.4861L43.6265 34.4034H42.5468L41.3038 37.7589C41.21 38.0383 41.1238 38.2961 41.0453 38.5311C40.9675 38.7636 40.8928 38.9808 40.8225 39.1783H40.7875C40.6994 38.9499 40.6094 38.7205 40.5156 38.4902C40.4219 38.2611 40.3238 38.0287 40.2244 37.7943L38.6526 34.4034H37.491ZM49.7848 41.2429C49.646 41.3092 49.4876 41.3679 49.3079 41.417C49.1279 41.4657 48.9367 41.5032 48.7329 41.5301C48.5279 41.5579 48.3204 41.571 48.1076 41.571C47.468 41.5676 46.9227 41.4382 46.473 41.1801C46.0233 40.9223 45.679 40.5567 45.4405 40.0817C45.2024 39.6083 45.0824 39.0452 45.0808 38.3924C45.0824 37.8718 45.1568 37.4108 45.3018 37.0059C45.448 36.6034 45.6577 36.2609 45.9271 35.9834C46.1989 35.7037 46.5236 35.4928 46.9014 35.3478C47.2802 35.2034 47.7005 35.1312 48.1664 35.1312C48.4967 35.1331 48.7954 35.164 49.0632 35.2253C49.3317 35.2856 49.5601 35.364 49.7495 35.4593L50.0076 34.6262C49.9176 34.5775 49.787 34.5268 49.6167 34.4722C49.4467 34.419 49.2379 34.3725 48.9914 34.335C48.7426 34.2959 48.4555 34.2768 48.1305 34.2747C47.5152 34.2768 46.9561 34.3765 46.4511 34.574C45.9468 34.7715 45.5127 35.0531 45.1471 35.4187C44.7815 35.7843 44.4999 36.2218 44.3024 36.7284C44.1031 37.2368 44.0037 37.804 44.0012 38.4274C44.0052 39.0786 44.1031 39.6533 44.2965 40.1536C44.4902 40.6523 44.7618 41.0707 45.1143 41.4095C45.4643 41.7492 45.8749 42.0054 46.3474 42.1792C46.8189 42.3513 47.3349 42.4395 47.8964 42.4395C48.2186 42.4376 48.5142 42.4198 48.7842 42.3848C49.0536 42.3479 49.2926 42.3007 49.4957 42.2442C49.6988 42.1873 49.8614 42.1285 49.9845 42.0639L49.7848 41.2429ZM52.7756 42.3104H53.8081V35.2718H56.2253V34.4034H50.3713V35.2718H52.7756V42.3104ZM60.2951 34.2631C59.7655 34.2647 59.2767 34.3628 58.8327 34.5584C58.3871 34.7537 58.0021 35.0334 57.6737 35.3968C57.3449 35.7624 57.0912 36.1987 56.9109 36.7071C56.729 37.2174 56.6374 37.7861 56.6352 38.4161C56.6374 39.0158 56.723 39.5611 56.8952 40.0539C57.0674 40.5451 57.3099 40.9689 57.6249 41.3254C57.9399 41.6811 58.3152 41.9545 58.7486 42.1479C59.1827 42.3398 59.6617 42.4376 60.1898 42.4395C60.5945 42.4395 60.9814 42.3807 61.347 42.2654C61.7126 42.152 62.0495 41.9798 62.3542 41.7532C62.6592 41.5264 62.9254 41.247 63.1498 40.9108C63.3751 40.5764 63.551 40.1892 63.6738 39.7489C63.7969 39.3089 63.8597 38.8168 63.8613 38.2749C63.8597 37.6824 63.7757 37.143 63.6091 36.6543C63.4435 36.1637 63.2045 35.7409 62.892 35.3853C62.581 35.0278 62.2054 34.7518 61.7679 34.5584C61.3317 34.3643 60.8392 34.2647 60.2951 34.2631ZM60.2601 35.0956C60.6004 35.0978 60.9054 35.1584 61.1754 35.2799C61.4473 35.399 61.6817 35.5649 61.8832 35.7743C62.0848 35.9852 62.2529 36.2281 62.3857 36.5015C62.5188 36.7752 62.6185 37.0687 62.6845 37.3774C62.7491 37.6883 62.7826 38.0033 62.7826 38.3221C62.7826 38.7736 62.726 39.198 62.6145 39.593C62.5026 39.988 62.3385 40.3355 62.1239 40.6367C61.9067 40.938 61.6426 41.1745 61.3276 41.3467C61.0132 41.5164 60.6533 41.6029 60.2486 41.607C59.9239 41.6045 59.6289 41.5482 59.363 41.4364C59.097 41.3229 58.8621 41.1664 58.6571 40.9654C58.4518 40.7639 58.2796 40.5273 58.1408 40.2595C58.0002 39.9895 57.8943 39.6964 57.8224 39.3798C57.7521 39.0633 57.7146 38.7342 57.7146 38.3924C57.7146 38.0465 57.748 37.7102 57.8165 37.3871C57.8827 37.0646 57.9846 36.7637 58.1212 36.4862C58.2565 36.2103 58.4261 35.9677 58.6296 35.759C58.8327 35.5515 59.0718 35.3893 59.3436 35.2734C59.6152 35.1565 59.9198 35.0978 60.2601 35.0956ZM65.1869 42.2867C65.3572 42.3104 65.5759 42.3316 65.8419 42.3513C66.1081 42.3691 66.4191 42.3788 66.7706 42.3807C67.4162 42.3807 67.9637 42.322 68.4134 42.201C68.8646 42.0795 69.2246 41.8942 69.4924 41.642C69.6996 41.4542 69.8662 41.2292 69.9868 40.9654C70.1083 40.7011 70.1705 40.3983 70.173 40.058C70.1705 39.7648 70.1199 39.5048 70.0243 39.2795C69.9265 39.0552 69.7993 38.8593 69.6393 38.6993C69.4787 38.5368 69.3046 38.4061 69.1131 38.3043C68.9234 38.2024 68.7318 38.1305 68.5424 38.0874V38.0521C68.818 37.9524 69.0543 37.8155 69.254 37.6433C69.453 37.4712 69.6074 37.2721 69.7152 37.0452C69.8227 36.8183 69.8774 36.5759 69.8793 36.3156C69.8774 36.0046 69.8171 35.7312 69.6996 35.4987C69.5805 35.2659 69.4181 35.0725 69.2109 34.92C69.0524 34.7868 68.8706 34.6775 68.6656 34.5934C68.4599 34.5093 68.2234 34.4468 67.9596 34.4059C67.6937 34.3643 67.3909 34.3447 67.0522 34.3447C66.8156 34.3447 66.5831 34.3528 66.3544 34.3665C66.1253 34.3822 65.9122 34.4019 65.7131 34.4287C65.5116 34.4547 65.3375 34.4859 65.1869 34.5209V42.2867ZM66.2075 35.2015C66.2878 35.1818 66.3994 35.1665 66.5437 35.1525C66.6884 35.1387 66.8784 35.1312 67.1109 35.1312C67.4572 35.129 67.76 35.174 68.0162 35.2622C68.2746 35.35 68.4756 35.4887 68.6184 35.6806C68.7612 35.8699 68.8337 36.1165 68.8352 36.4215C68.8352 36.6777 68.7668 36.9065 68.6321 37.1077C68.4974 37.3071 68.3034 37.4655 68.0496 37.5805C67.7975 37.698 67.4921 37.7568 67.1347 37.7589H66.2075V35.2015ZM66.2075 38.5214H67.0522C67.3337 38.5214 67.5959 38.5508 67.8422 38.6096C68.0868 38.6683 68.3034 38.7599 68.4912 38.883C68.6787 39.0061 68.8256 39.1645 68.9315 39.358C69.0368 39.5495 69.0915 39.7805 69.0934 40.0464C69.0915 40.3314 69.0346 40.5745 68.9252 40.7714C68.8159 40.9689 68.6656 41.1279 68.4756 41.247C68.2837 41.366 68.069 41.452 67.8265 41.5048C67.5844 41.5579 67.3297 41.5851 67.0637 41.5833C66.8825 41.5833 66.72 41.5792 66.579 41.5735C66.4362 41.5654 66.3131 41.5539 66.2075 41.536V38.5214ZM76.8591 41.2429C76.7204 41.3092 76.5619 41.3679 76.3826 41.417C76.2023 41.4657 76.011 41.5032 75.8073 41.5301C75.6023 41.5579 75.3951 41.571 75.182 41.571C74.5423 41.5676 73.997 41.4382 73.5473 41.1801C73.0976 40.9223 72.7533 40.5567 72.5152 40.0817C72.2767 39.6083 72.157 39.0452 72.1552 38.3924C72.157 37.8718 72.2311 37.4108 72.3764 37.0059C72.5227 36.6034 72.732 36.2609 73.0017 35.9834C73.2733 35.7037 73.5979 35.4928 73.9757 35.3478C74.3545 35.2034 74.7748 35.1312 75.2407 35.1312C75.5713 35.1331 75.8701 35.164 76.1379 35.2253C76.406 35.2856 76.6347 35.364 76.8241 35.4593L77.0819 34.6262C76.9922 34.5775 76.8616 34.5268 76.691 34.4722C76.5213 34.419 76.3122 34.3725 76.0657 34.335C75.8169 34.2959 75.5298 34.2768 75.2051 34.2747C74.5895 34.2768 74.0304 34.3765 73.5254 34.574C73.0211 34.7715 72.587 35.0531 72.2214 35.4187C71.8558 35.7843 71.5742 36.2218 71.3767 36.7284C71.1777 37.2368 71.078 37.804 71.0758 38.4274C71.0796 39.0786 71.1777 39.6533 71.3711 40.1536C71.5646 40.6523 71.8361 41.0707 72.1886 41.4095C72.5386 41.7492 72.9492 42.0054 73.422 42.1792C73.8936 42.3513 74.4092 42.4395 74.9707 42.4395C75.2932 42.4376 75.5885 42.4198 75.8585 42.3848C76.1279 42.3479 76.3669 42.3007 76.5701 42.2442C76.7735 42.1873 76.9357 42.1285 77.0588 42.0639L76.8591 41.2429ZM78.3488 34.4034V42.3104H79.3694V38.6855H79.6981C80.0303 38.6855 80.3159 38.7286 80.5543 38.8127C80.7909 38.8986 80.9943 39.0177 81.1606 39.1742C81.3265 39.3286 81.4674 39.5145 81.5827 39.7298C81.7002 39.9445 81.8021 40.183 81.8918 40.4448C81.9662 40.6545 82.0405 40.8676 82.1146 41.0845C82.189 41.3035 82.2671 41.5164 82.349 41.726C82.4315 41.9332 82.5211 42.1285 82.6189 42.3104H83.7102C83.5983 42.076 83.4949 41.8373 83.4008 41.597C83.3071 41.3542 83.2174 41.1082 83.1274 40.8539C83.0377 40.5998 82.9415 40.3395 82.8418 40.0695C82.744 39.8017 82.6346 39.5536 82.5115 39.3252C82.3905 39.0961 82.2452 38.8927 82.0755 38.7149C81.9074 38.5368 81.7058 38.3883 81.4693 38.2708C81.2327 38.1533 80.9512 38.0733 80.6246 38.0287L83.6161 34.4034H82.3961L79.6862 37.9111H79.3694V34.4034H78.3488ZM84.7067 34.4034V42.3104H85.7976L88.2729 38.3686C88.5469 37.933 88.8091 37.4908 89.0629 37.0434C89.3175 36.5956 89.5441 36.154 89.7394 35.7174L89.7744 35.7296C89.7475 36.0599 89.7279 36.3899 89.7141 36.7202C89.7004 37.053 89.6929 37.4008 89.6869 37.7624C89.6829 38.1264 89.6807 38.5189 89.6807 38.9433V42.3104H90.6428V34.4034H89.6225L87.0651 38.4743C86.7776 38.9417 86.5117 39.393 86.267 39.827C86.0229 40.2595 85.8042 40.6817 85.6101 41.0904L85.5748 41.0789C85.5986 40.7289 85.6164 40.3748 85.6295 40.0189C85.6436 39.663 85.6533 39.2973 85.6614 38.9205C85.667 38.5427 85.6689 38.1477 85.6689 37.7355V34.4034H84.7067ZM96.5086 37.7589H93.4468V35.2603H96.6964V34.4034H92.4143V42.3104H96.8723V41.4542H93.4468V38.6036H96.5086V37.7589ZM162.84 34.4034V42.3104H163.872V38.6036H167.697V42.3104H168.729V34.4034H167.697V37.7118H163.872V34.4034H162.84ZM173.691 34.2631C173.161 34.2647 172.672 34.3628 172.228 34.5584C171.783 34.7537 171.397 35.0334 171.069 35.3968C170.74 35.7624 170.486 36.1987 170.306 36.7071C170.124 37.2174 170.033 37.7861 170.031 38.4161C170.033 39.0158 170.119 39.5611 170.291 40.0539C170.463 40.5451 170.705 40.9689 171.02 41.3254C171.335 41.6811 171.71 41.9545 172.144 42.1479C172.578 42.3398 173.057 42.4376 173.585 42.4395C173.99 42.4395 174.377 42.3807 174.743 42.2654C175.108 42.152 175.445 41.9798 175.749 41.7532C176.055 41.5264 176.321 41.247 176.545 40.9108C176.77 40.5764 176.947 40.1892 177.069 39.7489C177.192 39.3089 177.255 38.8168 177.257 38.2749C177.255 37.6824 177.171 37.143 177.005 36.6543C176.839 36.1637 176.6 35.7409 176.287 35.3853C175.976 35.0278 175.601 34.7518 175.163 34.5584C174.727 34.3643 174.235 34.2647 173.691 34.2631ZM173.655 35.0956C173.996 35.0978 174.301 35.1584 174.571 35.2799C174.843 35.399 175.077 35.5649 175.279 35.7743C175.48 35.9852 175.648 36.2281 175.781 36.5015C175.914 36.7752 176.014 37.0687 176.08 37.3774C176.144 37.6883 176.178 38.0033 176.178 38.3221C176.178 38.7736 176.121 39.198 176.01 39.593C175.898 39.988 175.734 40.3355 175.519 40.6367C175.302 40.938 175.038 41.1745 174.723 41.3467C174.409 41.5164 174.049 41.6029 173.644 41.607C173.319 41.6045 173.024 41.5482 172.759 41.4364C172.492 41.3229 172.258 41.1664 172.053 40.9654C171.847 40.7639 171.675 40.5273 171.536 40.2595C171.395 39.9895 171.29 39.6964 171.218 39.3798C171.147 39.0633 171.11 38.7342 171.11 38.3924C171.11 38.0465 171.143 37.7102 171.212 37.3871C171.278 37.0646 171.38 36.7637 171.516 36.4862C171.652 36.2103 171.822 35.9677 172.025 35.759C172.228 35.5515 172.467 35.3893 172.739 35.2734C173.011 35.1565 173.315 35.0978 173.655 35.0956ZM177.949 34.4034L180.741 38.0405C180.434 38.0793 180.17 38.1533 179.945 38.2652C179.722 38.3767 179.529 38.5189 179.367 38.6952C179.206 38.8714 179.065 39.0764 178.944 39.3089C178.825 39.542 178.715 39.8001 178.618 40.0817C178.534 40.3279 178.452 40.5764 178.372 40.8267C178.293 41.0767 178.209 41.3254 178.121 41.5735C178.033 41.8217 177.932 42.0679 177.82 42.3104H178.864C178.95 42.1326 179.028 41.9351 179.103 41.7198C179.175 41.5048 179.246 41.2895 179.312 41.0708C179.378 40.852 179.443 40.6464 179.509 40.457C179.601 40.1852 179.701 39.943 179.806 39.7236C179.914 39.5064 180.041 39.3211 180.19 39.1667C180.338 39.0121 180.522 38.8927 180.741 38.8105C180.958 38.7286 181.224 38.6855 181.539 38.6855H181.903V42.3104H182.888V38.6855H183.24C183.555 38.6855 183.82 38.7286 184.039 38.8105C184.256 38.8927 184.44 39.0121 184.589 39.1667C184.738 39.3211 184.864 39.5064 184.972 39.7236C185.077 39.943 185.178 40.1852 185.269 40.457C185.332 40.6464 185.395 40.852 185.461 41.0708C185.525 41.2895 185.595 41.5048 185.668 41.7198C185.742 41.9351 185.825 42.1326 185.914 42.3104H186.958C186.851 42.0679 186.753 41.8217 186.669 41.5735C186.585 41.3254 186.503 41.0748 186.427 40.8226C186.35 40.5704 186.269 40.3201 186.184 40.0695C186.087 39.7864 185.977 39.5283 185.856 39.2933C185.734 39.0592 185.592 38.8536 185.427 38.6758C185.263 38.5002 185.068 38.3574 184.841 38.2474C184.615 38.1402 184.346 38.0693 184.038 38.0405L186.841 34.4034H185.657L183.205 37.9111H182.888V34.4034H181.903V37.9111H181.585L179.134 34.4034H177.949ZM187.979 34.4034V42.3104H189.07L191.545 38.3686C191.819 37.933 192.081 37.4908 192.335 37.0434C192.589 36.5956 192.816 36.154 193.011 35.7174L193.046 35.7296C193.019 36.0599 193 36.3899 192.986 36.7202C192.972 37.053 192.965 37.4008 192.959 37.7624C192.955 38.1264 192.952 38.5189 192.952 38.9433V42.3104H193.915V34.4034H192.894L190.337 38.4743C190.05 38.9417 189.783 39.393 189.539 39.827C189.295 40.2595 189.076 40.6817 188.882 41.0904L188.847 41.0789C188.87 40.7289 188.888 40.3748 188.902 40.0189C188.915 39.663 188.925 39.2973 188.933 38.9205C188.939 38.5427 188.941 38.1477 188.941 37.7355V34.4034H187.979Z" fill="#1F1C21"/>
</g>
<defs>
<filter id="filter0_d_39_4530" x="0" y="0" width="198" height="50.451" filterUnits="userSpaceOnUse" color-interpolation-filters="sRGB">
<feFlood flood-opacity="0" result="BackgroundImageFix"/>
<feColorMatrix in="SourceAlpha" type="matrix" values="0 0 0 0 0 0 0 0 0 0 0 0 0 0 0 0 0 0 127 0" result="hardAlpha"/>
<feOffset dy="4"/>
<feGaussianBlur stdDeviation="2"/>
<feComposite in2="hardAlpha" operator="out"/>
<feColorMatrix type="matrix" values="0 0 0 0 0 0 0 0 0 0 0 0 0 0 0 0 0 0 0.25 0"/>
<feBlend mode="normal" in2="BackgroundImageFix" result="effect1_dropShadow_39_4530"/>
<feBlend mode="normal" in="SourceGraphic" in2="effect1_dropShadow_39_4530" result="shape"/>
</filter>
</defs>
</svg>
